<svg xmlns="http://www.w3.org/2000/svg" width="46" height="46" viewBox="0 0 46 46">
    <path d="M29,6a23,23,0,0,0-5.347,45.368c-.524-.125-1.043-.264-1.552-.424v-5.27a7.02,7.02,0,0,1-2.012.288c-3.217,0-4.554-2.871-4.888-4.312a4.479,4.479,0,0,0-1.3-2.219c-.679-.605-1-.607-1-.814-.009-.434.582-.417.863-.417,1.438,0,2.527,1.529,3.033,2.32,1.253,1.952,2.6,2.28,3.292,2.28a5.072,5.072,0,0,0,2.12-.377A6.81,6.81,0,0,1,24.4,38.2c-5.394-1.078-9.2-4.172-9.2-9.2a10.26,10.26,0,0,1,2.771-6.893,9.336,9.336,0,0,1-.472-3.17,10.394,10.394,0,0,1,.575-3.738,10.227,10.227,0,0,1,6.374,2.953,16.191,16.191,0,0,1,9.1,0A10.227,10.227,0,0,1,39.925,15.2a10.336,10.336,0,0,1,.575,3.738,11.083,11.083,0,0,1-.382,3.27A10.231,10.231,0,0,1,42.8,29c0,5.028-3.806,8.122-9.2,9.2a6.816,6.816,0,0,1,2.3,5.175v7.57c-.51.16-1.028.3-1.553.424A23,23,0,0,0,29,6Zm1.6,45.938c-.53.037-1.064.062-1.6.062C29.54,52,30.073,51.974,30.6,51.938Zm3.515-.517a22.949,22.949,0,0,1-3.162.49A23.084,23.084,0,0,0,34.118,51.421ZM29,52c-.54,0-1.074-.025-1.6-.062C27.927,51.974,28.46,52,29,52Zm-1.957-.088a22.936,22.936,0,0,1-3.162-.49A23.092,23.092,0,0,0,27.043,51.912Z" transform="translate(-6 -6)" fill="#000000"/>
</svg>