<svg xmlns="http://www.w3.org/2000/svg" width="149.88" height="55.92" viewBox="0 0 149.88 55.92"><path d="M26.141-16.326,16.052-43.1a.381.381,0,0,0-.356-.247H9.757a.43.43,0,0,0-.4.279L-.722-16.326a.34.34,0,0,0,.318.46h6.83a.337.337,0,0,0,.321-.232l1.446-4.384a.344.344,0,0,1,.327-.236H16.9a.34.34,0,0,1,.323.234l1.429,4.334a.415.415,0,0,0,.394.285h6.775A.34.34,0,0,0,26.141-16.326Zm-11.32-10H10.586a.337.337,0,0,1-.32-.442l2.113-6.408a.348.348,0,0,1,.661,0l2.109,6.4A.345.345,0,0,1,14.822-26.328ZM33.085-43.262H26.954a.331.331,0,0,0-.332.331v26.626a.332.332,0,0,0,.332.332h6.131a.332.332,0,0,0,.331-.332V-42.931A.331.331,0,0,0,33.085-43.262Zm14.33,6.2a11.1,11.1,0,0,0-5.468,1.433.165.165,0,0,1-.249-.143v-7.169a.331.331,0,0,0-.331-.331h-5.8a.331.331,0,0,0-.332.331v26.626a.332.332,0,0,0,.332.332h5.8a.331.331,0,0,0,.331-.332v-.306a.166.166,0,0,1,.249-.143,11.093,11.093,0,0,0,5.468,1.434A10.955,10.955,0,0,0,58.432-26.2,10.955,10.955,0,0,0,47.414-37.065Zm-.994,15.85A4.749,4.749,0,0,1,41.7-26.2a4.749,4.749,0,0,1,4.722-4.984A5.024,5.024,0,0,1,51.473-26.2,5.024,5.024,0,0,1,46.42-21.215ZM27.885-3.256a.349.349,0,0,0-.348-.316H13.2a.345.345,0,0,0-.345.344L12.84,2.031a.347.347,0,0,0,.346.347h6.578a.332.332,0,0,1,.267.529,7.594,7.594,0,0,1-6.144,3.127,7.8,7.8,0,0,1-7.7-7.875,7.8,7.8,0,0,1,7.7-7.875,7.67,7.67,0,0,1,5.8,2.7.341.341,0,0,0,.461.048l4.518-3.375a.466.466,0,0,0,.082-.666,14.293,14.293,0,0,0-4.4-3.639,13.666,13.666,0,0,0-6.462-1.6A14.27,14.27,0,0,0-.2-1.841,14.27,14.27,0,0,0,13.888,12.576a13.666,13.666,0,0,0,6.462-1.6,14.316,14.316,0,0,0,4.893-4.284,14.467,14.467,0,0,0,2.127-4.35,14.741,14.741,0,0,0,.6-4.179C27.972-2.258,27.92-2.882,27.885-3.256Zm23.052-5.7h-5.8a.332.332,0,0,0-.332.332v.633a.165.165,0,0,1-.249.143A11.1,11.1,0,0,0,39.09-9.28,10.955,10.955,0,0,0,28.071,1.586,10.956,10.956,0,0,0,39.09,12.453a11.089,11.089,0,0,0,5.468-1.434.166.166,0,0,1,.249.143v.306a.331.331,0,0,0,.332.332h5.8a.331.331,0,0,0,.331-.332V-8.622A.331.331,0,0,0,50.937-8.954ZM40.084,6.57A5.024,5.024,0,0,1,35.03,1.586,5.024,5.024,0,0,1,40.084-3.4a4.748,4.748,0,0,1,4.722,4.984A4.748,4.748,0,0,1,40.084,6.57ZM64.172-8.94a8.422,8.422,0,0,0-4.37,1.05.165.165,0,0,1-.252-.141v-.579a.331.331,0,0,0-.331-.332h-5.8a.331.331,0,0,0-.332.332V11.479a.331.331,0,0,0,.332.332h6.189a.331.331,0,0,0,.331-.332V-.2a4.668,4.668,0,0,1,.336-2.157,2,2,0,0,1,1.3-1.034,8.815,8.815,0,0,1,2.372-.033.33.33,0,0,0,.36-.317l.2-4.854A.33.33,0,0,0,64.172-8.94ZM84.591,6.829,80.022,4.192a.328.328,0,0,0-.439.1A4.591,4.591,0,0,1,75.675,6.57,5.07,5.07,0,0,1,71.8,4.781a4.68,4.68,0,0,1,0-6.39A5.073,5.073,0,0,1,75.675-3.4a4.592,4.592,0,0,1,3.909,2.277.329.329,0,0,0,.439.1L81.722-2l2.942-1.7a.257.257,0,0,0,.092-.357h0q-.271-.438-.583-.85l-.008-.011q-.306-.4-.648-.775l-.051-.055c-.1-.107-.2-.211-.3-.315l-.055-.055c-.1-.1-.2-.189-.3-.281-.06-.054-.119-.107-.18-.159L82.5-6.664a11.155,11.155,0,0,0-5.647-2.512L76.645-9.2c-.087-.01-.173-.02-.259-.028-.135-.013-.269-.023-.405-.031l-.146-.007c-.163-.007-.327-.012-.491-.012A10.956,10.956,0,0,0,64.325,1.586,10.956,10.956,0,0,0,75.343,12.453c.165,0,.328-.005.491-.012l.146-.007c.136-.007.271-.018.405-.031l.259-.029.209-.026A11.152,11.152,0,0,0,82.5,9.837l.127-.108c.06-.052.12-.1.179-.158.1-.092.2-.186.3-.282l.052-.052c.095-.1.249-.255.341-.354l.017-.018q.342-.372.649-.775l.008-.011c.13-.172.365-.527.53-.783a.331.331,0,0,0-.113-.466ZM91.832-8.942h-5.8a.332.332,0,0,0-.332.332V11.479a.332.332,0,0,0,.332.332h5.8a.331.331,0,0,0,.331-.332V-8.611A.331.331,0,0,0,91.832-8.942Zm0-6.536h-5.8a.331.331,0,0,0-.332.331v4.234a.332.332,0,0,0,.332.332h5.8a.331.331,0,0,0,.331-.332v-4.234A.331.331,0,0,0,91.832-15.478Zm24.291,6.524h-5.8a.332.332,0,0,0-.332.332v.633a.165.165,0,0,1-.249.143,11.1,11.1,0,0,0-5.468-1.433A10.955,10.955,0,0,0,93.257,1.586a10.956,10.956,0,0,0,11.019,10.867,11.089,11.089,0,0,0,5.468-1.434.166.166,0,0,1,.249.143v.306a.331.331,0,0,0,.332.332h5.8a.331.331,0,0,0,.331-.332V-8.622A.331.331,0,0,0,116.123-8.954ZM105.27,6.57a5.024,5.024,0,0,1-5.054-4.983A5.025,5.025,0,0,1,105.27-3.4a4.748,4.748,0,0,1,4.722,4.984A4.748,4.748,0,0,1,105.27,6.57ZM146.664-7.11h0a5.353,5.353,0,0,0-.467-.411c-.034-.027-3.433-2.705-7.348-1.369a6.385,6.385,0,0,0-1.984.967A6.52,6.52,0,0,0,135.6-6.751a.331.331,0,0,1-.5.016q-.17-.186-.359-.376a5.241,5.241,0,0,0-.467-.411c-.047-.038-4.6-3.61-9.271-.393a.166.166,0,0,1-.259-.137v-.559a.331.331,0,0,0-.331-.332h-5.8a.332.332,0,0,0-.332.332V11.479a.331.331,0,0,0,.332.332h6.189a.332.332,0,0,0,.331-.332V.128a6.187,6.187,0,0,1,.336-2.485,2.526,2.526,0,0,1,2.413-1.072,2.391,2.391,0,0,1,1.532.451,2.086,2.086,0,0,1,.583.739,5.9,5.9,0,0,1,.366,2.366l.014,11.352a.331.331,0,0,0,.332.331h6.023a.332.332,0,0,0,.332-.332V.128a6.187,6.187,0,0,1,.336-2.485A2.526,2.526,0,0,1,139.8-3.429a2.39,2.39,0,0,1,1.532.451,2.09,2.09,0,0,1,.583.739,5.889,5.889,0,0,1,.366,2.366V11.479a.332.332,0,0,0,.332.332H148.8a.332.332,0,0,0,.332-.332V-.2c0-3.059-.357-4.783-2.472-6.911Z" transform="translate(0.744 43.344)" fill="#f8f8f8"/></svg>