<svg xmlns="http://www.w3.org/2000/svg" width="42" height="10.01" viewBox="0 0 42 10.01">
    <path id="Union_7" data-name="Union 7" d="M-1665.755,2507.169a.65.65,0,0,1,.239-.888l5.464-3.155h-38.3a.651.651,0,0,1-.651-.651.651.651,0,0,1,.651-.65h38.252l-5.419-3.129a.649.649,0,0,1-.239-.887.65.65,0,0,1,.888-.239l7.432,4.292a.65.65,0,0,1,.435.614.649.649,0,0,1-.058.269.648.648,0,0,1-.275.312l-7.534,4.35a.646.646,0,0,1-.325.087A.651.651,0,0,1-1665.755,2507.169Z" transform="translate(1699 -2497.483)" fill="#fff"/>
</svg>
