<svg xmlns="http://www.w3.org/2000/svg" xmlns:xlink="http://www.w3.org/1999/xlink" width="589" height="410" viewBox="0 0 589 410"><defs><filter id="a" x="121.296" y="34.725" width="346.282" height="346.282" filterUnits="userSpaceOnUse"><feOffset dy="3" input="SourceAlpha"/><feGaussianBlur stdDeviation="24.5" result="b"/><feFlood flood-color="#ed2536"/><feComposite operator="in" in2="b"/><feComposite in="SourceGraphic"/></filter></defs><g transform="translate(-1144 -299)" opacity="0.699"><rect width="589" height="410" transform="translate(1144 299)" fill="none"/><g transform="translate(13.738 -10.477)"><path d="M182.676,29.893A19.683,19.683,0,0,0,168.7,35.848L152.262,52.289l-5.2-5.2L163.435,30.58a19.678,19.678,0,0,0,5.955-13.973,16.607,16.607,0,1,0-26.2,13.564,3.321,3.321,0,1,0,3.843-5.417,9.966,9.966,0,1,1,15.71-8.147,13.319,13.319,0,0,1-4.019,9.286l-16.364,16.5-13.87-13.873a6.658,6.658,0,0,0-9.4,0L80.166,67.451a3.321,3.321,0,0,0,4.7,4.7L123.8,33.214l26,26c.037.043.05.1.093.143a1.3,1.3,0,0,0,.143.093l16.036,16.039-32.978,32.978-7.852-7.852a3.321,3.321,0,0,0-4.7,4.7l7.852,7.852-15.232,15.232-7.852-7.852a3.321,3.321,0,1,0-4.7,4.7l7.852,7.852L93.235,148.322l-7.852-7.852a3.321,3.321,0,0,0-4.7,4.7l7.852,7.852-4.67,4.67a10.21,10.21,0,0,1-14.093,0l-4.7-4.7a3.32,3.32,0,0,0-4.7,0L48.643,164.733,34.55,150.641,46.291,138.9a3.317,3.317,0,0,0,0-4.7l-4.7-4.7a10.554,10.554,0,0,1-3.059-7.048,7.976,7.976,0,0,1,1.943-5.929L70.656,86.356h75.485a3.321,3.321,0,0,0,0-6.642H69.281a3.319,3.319,0,0,0-2.348.973L35.782,111.831A14.477,14.477,0,0,0,31.9,122.742a17.182,17.182,0,0,0,5,11.462l2.348,2.348-9.393,9.393a6.651,6.651,0,0,0,0,9.4l4.7,4.7L.974,193.613a3.321,3.321,0,1,0,4.7,4.7l33.576-33.576,4.7,4.7a6.651,6.651,0,0,0,9.4,0l9.393-9.393,2.348,2.348a16.61,16.61,0,0,0,23.485,0l82.2-82.2a6.647,6.647,0,0,0,0-9.393L156.958,56.986,173.4,40.545a13.317,13.317,0,0,1,9.277-4.009,9.964,9.964,0,1,1-8.147,15.71,3.32,3.32,0,1,0-5.417,3.839,16.608,16.608,0,1,0,13.565-26.193Z" transform="translate(1325.058 414.701)" fill="#ed2536"/><g transform="matrix(1, 0, 0, 1, 1130.26, 309.48)" filter="url(#a)"><path d="M182.676,29.893A19.683,19.683,0,0,0,168.7,35.848L152.262,52.289l-5.2-5.2L163.435,30.58a19.678,19.678,0,0,0,5.955-13.973,16.607,16.607,0,1,0-26.2,13.564,3.321,3.321,0,1,0,3.843-5.417,9.966,9.966,0,1,1,15.71-8.147,13.319,13.319,0,0,1-4.019,9.286l-16.364,16.5-13.87-13.873a6.658,6.658,0,0,0-9.4,0L80.166,67.451a3.321,3.321,0,0,0,4.7,4.7L123.8,33.214l26,26c.037.043.05.1.093.143a1.3,1.3,0,0,0,.143.093l16.036,16.039-32.978,32.978-7.852-7.852a3.321,3.321,0,0,0-4.7,4.7l7.852,7.852-15.232,15.232-7.852-7.852a3.321,3.321,0,1,0-4.7,4.7l7.852,7.852L93.235,148.322l-7.852-7.852a3.321,3.321,0,0,0-4.7,4.7l7.852,7.852-4.67,4.67a10.21,10.21,0,0,1-14.093,0l-4.7-4.7a3.32,3.32,0,0,0-4.7,0L48.643,164.733,34.55,150.641,46.291,138.9a3.317,3.317,0,0,0,0-4.7l-4.7-4.7a10.554,10.554,0,0,1-3.059-7.048,7.976,7.976,0,0,1,1.943-5.929L70.656,86.356h75.485a3.321,3.321,0,0,0,0-6.642H69.281a3.319,3.319,0,0,0-2.348.973L35.782,111.831A14.477,14.477,0,0,0,31.9,122.742a17.182,17.182,0,0,0,5,11.462l2.348,2.348-9.393,9.393a6.651,6.651,0,0,0,0,9.4l4.7,4.7L.974,193.613a3.321,3.321,0,1,0,4.7,4.7l33.576-33.576,4.7,4.7a6.651,6.651,0,0,0,9.4,0l9.393-9.393,2.348,2.348a16.61,16.61,0,0,0,23.485,0l82.2-82.2a6.647,6.647,0,0,0,0-9.393L156.958,56.986,173.4,40.545a13.317,13.317,0,0,1,9.277-4.009,9.964,9.964,0,1,1-8.147,15.71,3.32,3.32,0,1,0-5.417,3.839,16.608,16.608,0,1,0,13.565-26.193Z" transform="translate(194.8 105.22)" fill="#ed2536"/></g></g></g></svg>