<svg xmlns="http://www.w3.org/2000/svg" xmlns:xlink="http://www.w3.org/1999/xlink" width="589" height="474.056" viewBox="0 0 589 474.056"><defs><filter id="a" x="88.742" y="146.147" width="217.55" height="327.48" filterUnits="userSpaceOnUse"><feOffset input="SourceAlpha"/><feGaussianBlur stdDeviation="24.5" result="b"/><feFlood flood-color="#f6c90e"/><feComposite operator="in" in2="b"/><feComposite in="SourceGraphic"/></filter><filter id="c" x="88.758" y="0" width="410.499" height="474.056" filterUnits="userSpaceOnUse"><feOffset input="SourceAlpha"/><feGaussianBlur stdDeviation="24.5" result="d"/><feFlood flood-color="#fff"/><feComposite operator="in" in2="d"/><feComposite in="SourceGraphic"/></filter></defs><g transform="translate(-1146 -302.972)"><rect width="589" height="410" transform="translate(1146 335)" fill="none"/><g transform="translate(1309.242 377.472)"><g transform="matrix(1, 0, 0, 1, -163.24, -74.5)" filter="url(#a)"><path d="M31.915,215.367h68.55V106.807L31.915,38.3Z" transform="translate(131.33 183.76)" fill="none" stroke="#f6c90e" stroke-width="2"/></g><g transform="matrix(1, 0, 0, 1, -163.24, -74.5)" filter="url(#c)"><path d="M224.867,12.874V187.058L48.924,11.115H31.918v79.96l68.534,68.539,46.93,46.931,81.241,81.225,48.4,48.4h16.393V12.874Z" transform="translate(131.34 63.38)" fill="none" stroke="#fff" stroke-width="2"/></g></g><g transform="translate(1309.242 377.472)"><path d="M31.915,215.367h68.55V106.807L31.915,38.3Z" transform="translate(-31.915 109.26)" fill="none" stroke="#f6c90e" stroke-width="2"/><path d="M224.867,12.874V187.058L48.924,11.115H31.918v79.96l68.534,68.539,46.93,46.931,81.241,81.225,48.4,48.4h16.393V12.874Z" transform="translate(-31.902 -11.115)" fill="none" stroke="#fff" stroke-width="2"/></g></g></svg>