<svg id="App_icon" data-name="App icon" xmlns="http://www.w3.org/2000/svg" width="1024" height="1024" viewBox="0 0 1024 1024">
  <rect id="Rectángulo_417" data-name="Rectángulo 417" width="1024" height="1024" fill="#c6ec15" opacity="0.999"/>
  <g id="Overlay" transform="translate(48)">
    <rect id="Rectángulo_415" data-name="Rectángulo 415" width="102" height="43" rx="21.5" transform="translate(160 303)"/>
    <rect id="Rectángulo_416" data-name="Rectángulo 416" width="102" height="43" rx="21.5" transform="translate(109 384)"/>
    <path id="Unión_1" data-name="Unión 1" d="M352.212,77.806S293-20.854,240.081-22.151,162.4-28.107,168.958-55.017s54.968-60.593,36.818-80.6-39.232-12.115-85.09-30.766c-17.823-7.249-35.5-25.32-46.224-50.12A59.024,59.024,0,0,1,19-177.674a59,59,0,0,1-59-59,59,59,0,0,1,59-59,58.877,58.877,0,0,1,45.3,21.2c1.521-28.8,12.365-60.825,37.485-93.093,71.814-92.248,224.689-36.206,230.633-34.272s84.7,14.134,82.091-30.977-81.911-28.591-148.8-40-62.1-43.277-35.176-60.426S278.713-550,278.713-550c61.4,1.456,88.105,14.706,121.174,32.054,34.5,18.1,53.277,45.135,53.277,45.135s26.164-6.766,58.455,0,60.323,41.008,69.025,70.974,19.713,96.6-7.245,109.417-52.087,11.306-90.638-8.688-30.071-20.019-25.418,4.757c3.066,16.327,14.192,85.142-9.329,138.355-35.688,67.809-46.726,73.067-70.03,60.123-28.731-21.144,21.6-72.176,14.9-118.182-5.958-37.822-42.052-45.865-40.675-7.569.639,17.77,3.252,51.323-10.306,79.092-15.425,31.594-48.247,56.761-63.193,62.505-27.884,10.717,30.556,1.45,73.5,46.775s66.395,68.2,52.02,102.1c-6.106,14.4-16.416,18.544-26.251,18.545C364.663,85.4,352.212,77.806,352.212,77.806Z" transform="translate(228 783.673)"/>
  </g>
</svg>
