<svg xmlns="http://www.w3.org/2000/svg" xmlns:xlink="http://www.w3.org/1999/xlink" width="589" height="421.238" viewBox="0 0 589 421.238"><defs><filter id="a" x="89.521" y="29.329" width="193" height="168" filterUnits="userSpaceOnUse"><feOffset input="SourceAlpha"/><feGaussianBlur stdDeviation="24.5" result="b"/><feFlood flood-color="#c6ec30"/><feComposite operator="in" in2="b"/><feComposite in="SourceGraphic"/></filter><filter id="c" x="67.521" y="64.329" width="193" height="168" filterUnits="userSpaceOnUse"><feOffset input="SourceAlpha"/><feGaussianBlur stdDeviation="24.5" result="d"/><feFlood flood-color="#c6ec30"/><feComposite operator="in" in2="d"/><feComposite in="SourceGraphic"/></filter><filter id="e" x="101.369" y="0" width="419.111" height="421.238" filterUnits="userSpaceOnUse"><feOffset input="SourceAlpha"/><feGaussianBlur stdDeviation="24.5" result="f"/><feFlood flood-color="#c6ec30"/><feComposite operator="in" in2="f"/><feComposite in="SourceGraphic"/></filter></defs><g transform="translate(-186 -1409.38)"><rect width="589" height="410" transform="translate(186 1415)" fill="none"/><g transform="translate(443.021 1497)"><g transform="translate(-224 -246.791)"><g transform="matrix(1, 0, 0, 1, -33.02, 159.17)" filter="url(#a)"><rect width="44" height="19" rx="9.5" transform="translate(164.02 103.83)" fill="none" stroke="#c6ec30" stroke-width="2" opacity="0"/></g><g transform="matrix(1, 0, 0, 1, -33.02, 159.17)" filter="url(#c)"><rect width="44" height="19" rx="9.5" transform="translate(142.02 138.83)" fill="none" stroke="#c6ec30" stroke-width="2"/></g><g transform="matrix(1, 0, 0, 1, -33.02, 159.17)" filter="url(#e)"><path d="M128.045-281.015S102.675-323.286,80-323.842s-33.283-2.552-30.473-14.082S73.08-363.884,65.3-372.457s-16.809-5.191-36.457-13.182c-7.636-3.106-15.21-10.848-19.8-21.474a25.289,25.289,0,0,1-23.763,16.636A25.279,25.279,0,0,1-40-415.755a25.279,25.279,0,0,1,25.279-25.279A25.226,25.226,0,0,1,4.688-431.95c.652-12.339,5.3-26.061,16.061-39.886,30.769-39.524,96.269-15.513,98.816-14.684s36.29,6.056,35.172-13.272-35.1-12.25-63.754-17.138-26.607-18.542-15.071-25.89S96.554-550,96.554-550c26.307.624,37.749,6.3,51.917,13.734A69.286,69.286,0,0,1,171.3-516.929a60.513,60.513,0,0,1,25.045,0c13.835,2.9,25.846,17.57,29.574,30.409s8.446,41.389-3.1,46.88-22.317,4.844-38.834-3.722-12.884-8.577-10.89,2.038c1.314,7,6.08,36.479-4,59.279-15.291,29.053-20.02,31.306-30,25.76-12.31-9.059,9.255-30.924,6.386-50.635-2.553-16.205-18.017-19.651-17.427-3.243.274,7.614,1.393,21.99-4.416,33.887-6.609,13.537-20.672,24.319-27.075,26.78-11.947,4.592,13.092.621,31.491,20.041s28.447,29.221,22.288,43.745c-2.616,6.17-7.033,7.945-11.247,7.946C133.379-277.761,128.045-281.015,128.045-281.015Z" transform="translate(215.87 624.5)" fill="none" stroke="#c6ec30" stroke-width="2"/></g></g><g transform="translate(-224 -246.791)"><rect width="44" height="19" rx="9.5" transform="translate(131 263)" fill="none" stroke="#c6ec30" stroke-width="2"/><rect width="44" height="19" rx="9.5" transform="translate(109 298)" fill="none" stroke="#c6ec30" stroke-width="2"/><path d="M128.045-281.015S102.675-323.286,80-323.842s-33.283-2.552-30.473-14.082S73.08-363.884,65.3-372.457s-16.809-5.191-36.457-13.182c-7.636-3.106-15.21-10.848-19.8-21.474a25.289,25.289,0,0,1-23.763,16.636A25.279,25.279,0,0,1-40-415.755a25.279,25.279,0,0,1,25.279-25.279A25.226,25.226,0,0,1,4.688-431.95c.652-12.339,5.3-26.061,16.061-39.886,30.769-39.524,96.269-15.513,98.816-14.684s36.29,6.056,35.172-13.272-35.1-12.25-63.754-17.138-26.607-18.542-15.071-25.89S96.554-550,96.554-550c26.307.624,37.749,6.3,51.917,13.734A69.286,69.286,0,0,1,171.3-516.929a60.513,60.513,0,0,1,25.045,0c13.835,2.9,25.846,17.57,29.574,30.409s8.446,41.389-3.1,46.88-22.317,4.844-38.834-3.722-12.884-8.577-10.89,2.038c1.314,7,6.08,36.479-4,59.279-15.291,29.053-20.02,31.306-30,25.76-12.31-9.059,9.255-30.924,6.386-50.635-2.553-16.205-18.017-19.651-17.427-3.243.274,7.614,1.393,21.99-4.416,33.887-6.609,13.537-20.672,24.319-27.075,26.78-11.947,4.592,13.092.621,31.491,20.041s28.447,29.221,22.288,43.745c-2.616,6.17-7.033,7.945-11.247,7.946C133.379-277.761,128.045-281.015,128.045-281.015Z" transform="translate(182.848 783.673)" fill="none" stroke="#c6ec30" stroke-width="2"/></g></g></g></svg>