<svg xmlns="http://www.w3.org/2000/svg" xmlns:xlink="http://www.w3.org/1999/xlink" width="589" height="410" viewBox="0 0 589 410"><defs><filter id="a" x="17.5" y="15.5" width="553.875" height="379.223" filterUnits="userSpaceOnUse"><feOffset input="SourceAlpha"/><feGaussianBlur stdDeviation="24.5" result="b"/><feFlood flood-color="#ed2536"/><feComposite operator="in" in2="b"/></filter></defs><g transform="translate(-1144 -299)" opacity="0.699"><rect width="589" height="410" transform="translate(1144 299)" fill="none"/><g transform="translate(13.738 -10.477)"><g transform="matrix(1, 0, 0, 1, 1130.26, 309.48)" filter="url(#a)"><path d="M136.412,23.52h11.895V57.035h32.4V23.52H192.6V111H180.709V67h-32.4v44H136.412ZM266.256,72.8V78.07h-46.7v.352q-.469,13.418,5.127,19.277t15.791,5.859a38.482,38.482,0,0,0,10.781-1.641,66.14,66.14,0,0,0,12.012-4.98V107.66a72.725,72.725,0,0,1-11.865,3.779,51.252,51.252,0,0,1-11.045,1.26q-15.293,0-23.906-9.17t-8.613-25.283q0-15.7,8.438-25.078t22.5-9.375q12.539,0,19.775,8.5A32.627,32.627,0,0,1,266.256,72.8Zm-10.781-3.164a20.9,20.9,0,0,0-4.951-11.748q-4.248-4.951-12.217-4.951a17.174,17.174,0,0,0-12.832,5.156,18.185,18.185,0,0,0-5.508,11.6ZM315.006,87.27q0,7.266,2.666,10.957t7.881,3.691h12.6V111H324.5q-9.668,0-14.971-6.182t-5.3-17.549V27.914H286.939V19.477h28.066Zm72.246,0q0,7.266,2.666,10.957t7.881,3.691h12.6V111H396.744q-9.668,0-14.971-6.182t-5.3-17.549V27.914H359.186V19.477h28.066Zm66.211-34.336q-8.2,0-12.422,6.387t-4.219,18.926q0,12.48,4.219,18.9t12.422,6.416q8.262,0,12.48-6.416t4.219-18.9q0-12.539-4.219-18.926T453.463,52.934Zm0-9.141q13.652,0,20.889,8.848t7.236,25.605q0,16.816-7.207,25.635T453.463,112.7q-13.652,0-20.859-8.818T425.4,78.246q0-16.758,7.207-25.605T453.463,43.793ZM92.262,162.52H103.8l8.379,71.016,9.961-46.992h12.363l10.078,47.109,8.379-71.133h11.543L151.441,250H140.25l-11.895-51.973L116.52,250H105.328ZM200.6,191.934q-8.2,0-12.422,6.387t-4.219,18.926q0,12.48,4.219,18.9t12.422,6.416q8.262,0,12.48-6.416t4.219-18.9q0-12.539-4.219-18.926T200.6,191.934Zm0-9.141q13.652,0,20.889,8.848t7.236,25.605q0,16.816-7.207,25.635T200.6,251.7q-13.652,0-20.859-8.818t-7.207-25.635q0-16.758,7.207-25.605T200.6,182.793ZM304.43,197.91a24.4,24.4,0,0,0-7.031-3.926,23.985,23.985,0,0,0-7.852-1.23q-10.078,0-15.41,6.328T268.8,217.363V250h-10.84V184.375H268.8v12.832a21.883,21.883,0,0,1,8.291-10.693,23.411,23.411,0,0,1,13.271-3.721,26.771,26.771,0,0,1,7.441,1,23.753,23.753,0,0,1,6.621,3.105Zm46.7,28.359q0,7.266,2.666,10.957t7.881,3.691h12.6V250H360.621q-9.668,0-14.971-6.182t-5.3-17.549V166.914H323.063v-8.437h28.066Zm80.391-33.516V158.828H442.3V250H431.52v-8.262a18.748,18.748,0,0,1-7.178,7.412A20.556,20.556,0,0,1,414,251.7q-11.895,0-18.721-9.229t-6.826-25.459q0-16,6.855-25.107T414,182.793a20.839,20.839,0,0,1,10.43,2.549A17.921,17.921,0,0,1,431.52,192.754Zm-31.7,24.492q0,12.539,3.984,18.926a13.007,13.007,0,0,0,11.777,6.387,13.183,13.183,0,0,0,11.865-6.445q4.072-6.445,4.072-18.867,0-12.48-4.072-18.9a13.2,13.2,0,0,0-11.865-6.416A13.007,13.007,0,0,0,403.8,198.32Q399.82,204.707,399.82,217.246Zm85.664-54.727h11.895V200.9l-1.23,17.988h-9.434l-1.23-17.988Zm-1.758,72.6h15.41V250h-15.41Z" transform="translate(-1.26 69.52)" fill="#fff"/></g><path d="M136.412,23.52h11.895V57.035h32.4V23.52H192.6V111H180.709V67h-32.4v44H136.412ZM266.256,72.8V78.07h-46.7v.352q-.469,13.418,5.127,19.277t15.791,5.859a38.482,38.482,0,0,0,10.781-1.641,66.14,66.14,0,0,0,12.012-4.98V107.66a72.725,72.725,0,0,1-11.865,3.779,51.252,51.252,0,0,1-11.045,1.26q-15.293,0-23.906-9.17t-8.613-25.283q0-15.7,8.438-25.078t22.5-9.375q12.539,0,19.775,8.5A32.627,32.627,0,0,1,266.256,72.8Zm-10.781-3.164a20.9,20.9,0,0,0-4.951-11.748q-4.248-4.951-12.217-4.951a17.174,17.174,0,0,0-12.832,5.156,18.185,18.185,0,0,0-5.508,11.6ZM315.006,87.27q0,7.266,2.666,10.957t7.881,3.691h12.6V111H324.5q-9.668,0-14.971-6.182t-5.3-17.549V27.914H286.939V19.477h28.066Zm72.246,0q0,7.266,2.666,10.957t7.881,3.691h12.6V111H396.744q-9.668,0-14.971-6.182t-5.3-17.549V27.914H359.186V19.477h28.066Zm66.211-34.336q-8.2,0-12.422,6.387t-4.219,18.926q0,12.48,4.219,18.9t12.422,6.416q8.262,0,12.48-6.416t4.219-18.9q0-12.539-4.219-18.926T453.463,52.934Zm0-9.141q13.652,0,20.889,8.848t7.236,25.605q0,16.816-7.207,25.635T453.463,112.7q-13.652,0-20.859-8.818T425.4,78.246q0-16.758,7.207-25.605T453.463,43.793ZM92.262,162.52H103.8l8.379,71.016,9.961-46.992h12.363l10.078,47.109,8.379-71.133h11.543L151.441,250H140.25l-11.895-51.973L116.52,250H105.328ZM200.6,191.934q-8.2,0-12.422,6.387t-4.219,18.926q0,12.48,4.219,18.9t12.422,6.416q8.262,0,12.48-6.416t4.219-18.9q0-12.539-4.219-18.926T200.6,191.934Zm0-9.141q13.652,0,20.889,8.848t7.236,25.605q0,16.816-7.207,25.635T200.6,251.7q-13.652,0-20.859-8.818t-7.207-25.635q0-16.758,7.207-25.605T200.6,182.793ZM304.43,197.91a24.4,24.4,0,0,0-7.031-3.926,23.985,23.985,0,0,0-7.852-1.23q-10.078,0-15.41,6.328T268.8,217.363V250h-10.84V184.375H268.8v12.832a21.883,21.883,0,0,1,8.291-10.693,23.411,23.411,0,0,1,13.271-3.721,26.771,26.771,0,0,1,7.441,1,23.753,23.753,0,0,1,6.621,3.105Zm46.7,28.359q0,7.266,2.666,10.957t7.881,3.691h12.6V250H360.621q-9.668,0-14.971-6.182t-5.3-17.549V166.914H323.063v-8.437h28.066Zm80.391-33.516V158.828H442.3V250H431.52v-8.262a18.748,18.748,0,0,1-7.178,7.412A20.556,20.556,0,0,1,414,251.7q-11.895,0-18.721-9.229t-6.826-25.459q0-16,6.855-25.107T414,182.793a20.839,20.839,0,0,1,10.43,2.549A17.921,17.921,0,0,1,431.52,192.754Zm-31.7,24.492q0,12.539,3.984,18.926a13.007,13.007,0,0,0,11.777,6.387,13.183,13.183,0,0,0,11.865-6.445q4.072-6.445,4.072-18.867,0-12.48-4.072-18.9a13.2,13.2,0,0,0-11.865-6.416A13.007,13.007,0,0,0,403.8,198.32Q399.82,204.707,399.82,217.246Zm85.664-54.727h11.895V200.9l-1.23,17.988h-9.434l-1.23-17.988Zm-1.758,72.6h15.41V250h-15.41Z" transform="translate(1129 379)" fill="none" stroke="#ed2536" stroke-width="2"/></g></g></svg>